# xmcd
#
# Track frame offsets:
#	150
#	22283
#	39616
#	54947
#	72346
#	90383
#	108402
#	125646
#	142279
#	161112
#	174144
#	188675
#	203132
#	217628
#	233078
#
# Disc length: 3362 seconds
#
# Revision: 2
# Processed by: cddbd v1.5.2PL0 Copyright (c) Steve Scherf et al.
# Submitted via: audiograbber 1.83.01
#
DISCID=d00d200f
DTITLE=100 Proof Aged In Soul - Somebody's Been Sleeping In My Bed... Plus and 10
DTITLE=0 Proof Aged In Soul... Plus  [CD2)
DYEAR=2009
DGENRE=Oldies
TTITLE0=Everything Good Is Bad
TTITLE1=Since You Been Gone
TTITLE2=Nothing Sweeter Than Love
TTITLE3=Ghetto Girl
TTITLE4=Words
TTITLE5=I Don't Care If I Never Get Over You
TTITLE6=Don't Scratch Where It Don't Itch
TTITLE7=Don't You Wake Me
TTITLE8=Never My Love
TTITLE9=I'd Rather Fight Than Switch
TTITLE10=If I Could See The Light In The Window  (Version 2)
TTITLE11=My Piece Of The Rock  (Vocal)
TTITLE12=My Piece Of The Rock  (Instrumental)
TTITLE13=I'm Mad As Hell (Ain't Gonna Take It No More)  (Part 1)
TTITLE14=I'm Mad As Hell (Ain't Gonna Take It No More)  (Part 2)
EXTD=
EXTT0=
EXTT1=
EXTT2=
EXTT3=
EXTT4=
EXTT5=
EXTT6=
EXTT7=
EXTT8=
EXTT9=
EXTT10=
EXTT11=
EXTT12=
EXTT13=
EXTT14=
PLAYORDER=
